<?xml version="1.0" encoding="UTF-8"?>
<svg width="45px" height="45px" viewBox="0 0 45 45" version="1.1" xmlns="http://www.w3.org/2000/svg" xmlns:xlink="http://www.w3.org/1999/xlink">
    <!-- Generator: Sketch 54.1 (76490) - https://sketchapp.com -->
    <title>ICON - LIKE</title>
    <desc>Created with Sketch.</desc>
    <g id="ICON---LIKE" stroke="none" stroke-width="1" fill="none" fill-rule="evenodd" stroke-linecap="round" stroke-linejoin="round">
        <g id="Group-5" transform="translate(13.000000, 10.000000)" stroke="#FFFFFF" stroke-width="2">
            <path d="M16.017538,22.7788844 C17.2289922,22.7788844 18.2611688,21.9499102 18.4503935,20.8241513 L19.9690486,11.7992294 C20.2063891,10.3925481 19.0513784,9.12081064 17.5371184,9.12081064 L12.6290748,9.12081064 C12.2513195,9.12081064 11.993391,8.77276103 12.1155311,8.43643567 C12.7877644,6.58354275 13.2705418,4.12581592 13.4146579,2.86419354 C13.5763548,1.44027061 12.4946744,0.778884391 11.4129941,0.778884391 C10.3313137,0.778884391 9.68198164,1.59291589 9.35789392,3.22074899 C9.0328809,4.84766254 8.33034385,6.88285622 6.65369305,9.17184566 C5.4322918,10.83807 2.4618347,11.9649783 0.936933746,12.4550984 C0.376199536,12.6351002 6.34689268e-05,13.129818 6.34689268e-05,13.6879848 L6.34689268e-05,21.7220917 C6.34689268e-05,22.305776 0.476132365,22.7788844 1.06346907,22.7788844 L16.017538,22.7788844 Z" id="Stroke-1"></path>
            <path d="M5.00006347,10.7788844 L5.00006347,22.7788844" id="Stroke-3"></path>
        </g>
    </g>
</svg>