<?xml version="1.0" encoding="UTF-8"?>
<svg width="45px" height="45px" viewBox="0 0 45 45" version="1.1" xmlns="http://www.w3.org/2000/svg" xmlns:xlink="http://www.w3.org/1999/xlink">
    <!-- Generator: Sketch 54.1 (76490) - https://sketchapp.com -->
    <title>ICON - aplauso</title>
    <desc>Created with Sketch.</desc>
    <g id="ICON---aplauso" stroke="none" stroke-width="1" fill="none" fill-rule="evenodd">
        <g id="Group-17" transform="translate(9.000000, 8.000000)" fill="#FFFFFF" stroke="#FFFFFF" stroke-width="0.5">
            <g id="Group-3" transform="translate(0.000000, 7.000000)">
                <path d="M15.998114,18.5120242 C15.0078227,19.5341037 13.742813,20.2316378 12.3645606,20.5156151 C12.3932208,20.4967628 12.4190848,20.4740923 12.447745,20.4550014 C12.6017644,20.3533423 12.7501916,20.2416605 12.8986188,20.1283083 C12.9845994,20.0631605 13.0736091,20.0023083 13.1570266,19.9323878 C13.335512,19.7853878 13.5063081,19.6245469 13.6743081,19.4594105 C13.7164829,19.4188423 13.7628518,19.3832855 13.8033955,19.3420014 L20.2782693,12.7105355 C20.3644829,12.6200923 20.4430072,12.5212969 20.5126771,12.4165355 C20.5366771,12.3819333 20.5567159,12.3461378 20.5786188,12.3103423 C20.6163664,12.2482969 20.6510848,12.1841037 20.6825411,12.1187173 C20.7093373,12.0628764 20.7342693,12.0072742 20.7561722,11.9500014 C20.7701528,11.9134901 20.7811042,11.8755469 20.7932208,11.8378423 C20.8757062,11.5856037 20.9111237,11.3192855 20.8973761,11.0536833 L20.8973761,11.0097742 C20.8915508,10.9260128 20.8808324,10.8429673 20.8642887,10.7611151 C20.8582305,10.7281833 20.8496091,10.6964446 20.8419198,10.6630355 C20.8342305,10.6298651 20.8260751,10.5826151 20.8141916,10.543956 L21.0499974,10.3019787 C21.4572984,9.88174007 22.119978,9.87935371 22.5300751,10.2964901 C22.5445217,10.3112855 22.5582693,10.326081 22.5717839,10.3415923 C22.934813,10.803831 22.8919392,11.4736833 22.4732208,11.8834219 L15.998114,18.5120242 Z M4.86957027,20.0194901 C4.07990036,19.6135696 3.3703858,19.0618423 2.77667706,18.3915128 C0.208677061,15.4154787 0.381570265,10.8973764 3.16859939,8.13611507 L6.61434696,4.60716053 C6.71803628,4.50072871 6.85877415,4.44035371 7.00580327,4.4396378 C7.12953143,4.43796735 7.24953143,4.48497871 7.34063823,4.57064916 C7.96813337,5.17225144 8.00028871,6.18072871 7.41287124,6.82361507 C7.40122075,6.83602416 7.38957027,6.84867189 7.37745376,6.86084235 L4.13722075,10.1774105 C3.94731784,10.365456 3.94195861,10.6756833 4.12557027,10.8704105 C4.30918192,11.0651378 4.61209454,11.0703878 4.80223046,10.8823423 C4.80619162,10.8785242 4.81015279,10.8744673 4.81388094,10.8704105 L8.05085182,7.55575144 L13.0847936,2.40025144 C13.2795897,2.19955825 13.5449877,2.08668325 13.8215703,2.08739916 C14.4003664,2.0876378 14.8694149,2.56825144 14.8691819,3.1612628 C14.8689489,3.44547871 14.7587353,3.71824007 14.5623081,3.91941053 L9.17209454,9.44074007 C8.98195861,9.62878553 8.9768324,9.9390128 9.16021104,10.1337401 C9.34382269,10.3284673 9.64696832,10.3337173 9.83710425,10.1456719 C9.84106541,10.1418537 9.84479357,10.1377969 9.84875473,10.1337401 L15.2396674,4.61241053 L17.4008324,2.39929689 C17.8099974,1.98072871 18.4731431,1.98096735 18.8820751,2.4000128 C18.8955897,2.41361507 18.9084052,2.42769462 18.9209877,2.4420128 C19.0533373,2.59497871 19.1369877,2.78564916 19.1602887,2.98849007 C19.1602887,3.00185371 19.1602887,3.01593325 19.1626188,3.02977416 C19.167512,3.08131962 19.1686771,3.13334235 19.16658,3.1848878 C19.16658,3.2032628 19.1630848,3.22139916 19.1616868,3.23953553 C19.1570266,3.28893325 19.1495703,3.33809235 19.1390848,3.38653553 C19.1353567,3.40395598 19.1311625,3.42185371 19.1262693,3.4395128 C19.1122887,3.49153553 19.095046,3.54236507 19.0747741,3.59200144 C19.0698809,3.60417189 19.0649877,3.61634235 19.0598615,3.62827416 C19.0009101,3.75880825 18.9198227,3.8778878 18.8205606,3.97954689 L17.7098033,5.11712644 L17.4485994,5.38416053 L17.4455703,5.38774007 L17.4455703,5.39012644 L11.3297644,11.6505128 C11.1396285,11.8385583 11.1345023,12.1490242 11.318114,12.3435128 C11.5017256,12.5384787 11.8046382,12.5437287 11.9947741,12.3556833 C11.9987353,12.3518651 12.0026965,12.3478083 12.0064246,12.3435128 L18.1199004,6.08264916 C18.1394732,6.06236507 18.1620751,6.04828553 18.18258,6.03014916 C18.3724829,5.86716053 18.6110848,5.77552416 18.8587741,5.77075144 L18.8874343,5.77075144 C18.9587353,5.77266053 19.0295703,5.78196735 19.0990072,5.79843325 C19.3080169,5.84878553 19.4967547,5.96404689 19.6393567,6.12846735 C19.7474732,6.25422871 19.8225023,6.40624007 19.8565217,6.56970598 C19.9399392,6.96560371 19.8204052,7.37772871 19.5398615,7.6631378 L19.4440945,7.76121735 L17.5026576,9.7447628 C17.4982305,9.74905825 17.4972984,9.75454689 17.4931042,9.75884235 L13.4872013,13.8614787 C13.2970654,14.0495242 13.2917062,14.3599901 13.4753178,14.5544787 C13.6589295,14.7489673 13.9618421,14.754456 14.151978,14.5666492 C14.1559392,14.5625923 14.1599004,14.5585355 14.1638615,14.5544787 L18.183512,10.4406264 C18.3310072,10.2890923 18.519745,10.1864787 18.7247936,10.1463878 L18.7387741,10.1425696 C18.8089101,10.1296833 18.879978,10.1246719 18.951046,10.1268196 C19.0155897,10.129206 19.0796674,10.1375583 19.14258,10.1518764 L19.1626188,10.1547401 C19.1870848,10.160706 19.2106188,10.1719219 19.2329877,10.1793196 C19.4135703,10.2358764 19.575745,10.3413537 19.7025023,10.4845355 C19.7474732,10.5358423 19.7870848,10.5921605 19.8206382,10.6518196 C20.0503858,11.1073764 19.9616091,11.6633992 19.6020751,12.0201605 L13.1267353,18.6482855 C12.9950848,18.7831151 12.8592402,18.9110242 12.7201334,19.0336833 C12.6942693,19.0553992 12.6679392,19.0761605 12.6420751,19.0981151 C12.5309295,19.1928537 12.4186188,19.2837742 12.303279,19.3713537 C12.2583081,19.4050014 12.2117062,19.437456 12.1662693,19.4691946 C12.0677062,19.539831 11.967978,19.6078423 11.8668518,19.6729901 C11.8111625,19.7090242 11.7557062,19.7431492 11.6993178,19.7775128 C11.6035508,19.833831 11.510813,19.8877628 11.41458,19.9400242 C11.3514343,19.9746264 11.2878227,20.0087514 11.223046,20.041206 C11.1340363,20.0863083 11.0436285,20.127831 10.9527547,20.1683992 C10.8805217,20.201331 10.8092208,20.2352173 10.7346576,20.2667173 C10.6598615,20.2979787 10.5794732,20.3254219 10.5018809,20.3542969 C10.4119392,20.3874673 10.3229295,20.4225469 10.2320557,20.4523764 C10.214347,20.4581037 10.1961722,20.4626378 10.1784635,20.4678878 C10.0386576,20.5122742 9.89745376,20.5528423 9.75508483,20.5881605 C9.75065764,20.5881605 9.7471625,20.5926946 9.7425023,20.5941264 C8.10304599,20.9983764 6.37667706,20.794581 4.86957027,20.0194901 L4.86957027,20.0194901 Z M20.2687159,2.26327416 C20.4737644,2.05518325 20.7531431,1.94183098 21.0418421,1.95018325 C21.3298421,1.95805825 21.6017644,2.0876378 21.7928324,2.30837644 C22.1574926,2.76727416 22.1146188,3.4368878 21.6942693,3.84328553 L20.3241722,5.24599007 L20.3146188,5.25625144 L20.2298033,5.34335371 C20.2179198,5.33237644 20.2048712,5.32283098 20.1934538,5.31233098 C20.1552402,5.27725144 20.1167936,5.24336507 20.0767159,5.2140128 C20.0366382,5.18466053 20.0016868,5.15864916 19.9632402,5.13287644 C19.9250266,5.10662644 19.886347,5.07942189 19.8455703,5.05579689 C19.8047936,5.03241053 19.7498033,5.0066378 19.7020363,4.98420598 C19.6656868,4.96654689 19.6302693,4.94745598 19.5929877,4.93242189 C19.5091042,4.89829689 19.4231237,4.8701378 19.335512,4.84794462 L19.3301528,4.84794462 L19.4981528,4.67636507 C19.5878615,4.58281962 19.6691819,4.48092189 19.7411819,4.37210371 C19.7537644,4.35396735 19.7647159,4.33583098 19.7761334,4.31721735 C19.8313567,4.23059235 19.8805217,4.1403878 19.9231625,4.04684235 C19.935046,4.02059235 19.9480945,3.99768325 19.959046,3.9697628 C20.0030848,3.86261507 20.0389683,3.75212644 20.0657644,3.63949007 C20.0743858,3.60345598 20.078114,3.56742189 20.0848712,3.53162644 C20.0990848,3.4552628 20.1098033,3.37842189 20.1163275,3.30134235 C20.1202887,3.25242189 20.1221528,3.2032628 20.1226188,3.1507628 C20.1226188,3.08322871 20.1193567,3.01593325 20.1135314,2.94839916 C20.1093373,2.89924007 20.1072402,2.85031962 20.1000169,2.80545598 C20.0848712,2.70379689 20.0618033,2.60380825 20.031745,2.50596735 L20.2687159,2.26327416 Z M22.5095703,5.98814916 C22.8737644,6.44704689 22.8320557,7.11594462 22.4140363,7.5240128 L20.3759004,9.61136507 L20.2906188,9.69846735 C20.2766382,9.68486507 20.2614926,9.67412644 20.247512,9.66124007 C20.2134926,9.63045598 20.1790072,9.6003878 20.1438227,9.57246735 C20.1084052,9.54478553 20.0594732,9.50970598 20.0159004,9.48035371 C19.9814149,9.45744462 19.9469295,9.43143325 19.911046,9.41234235 C19.8595508,9.38227416 19.8057256,9.35697871 19.7521334,9.33192189 C19.7211431,9.31736507 19.6915508,9.30089916 19.6598615,9.28849007 C19.5729489,9.25245598 19.4834732,9.22334235 19.3923664,9.20091053 L20.0536479,8.52342189 L20.2197839,8.35422871 C20.3041334,8.26569462 20.3814926,8.17047871 20.4504635,8.06881962 C20.4795897,8.02729689 20.5040557,7.98362644 20.5299198,7.94043325 C20.5613761,7.88674007 20.5916674,7.83280825 20.6189295,7.77696735 C20.6461916,7.7208878 20.678114,7.65025144 20.703046,7.58534235 C20.7116674,7.56124007 20.7184246,7.53618325 20.72658,7.51375144 C20.8186188,7.24409235 20.8570654,6.95844462 20.8388907,6.67375144 L20.8388907,6.66921735 C20.8325994,6.57662644 20.8200169,6.48475144 20.8016091,6.39383098 C20.7978809,6.3742628 20.7925217,6.35469462 20.7883275,6.33512644 C20.7773761,6.28596735 20.7696868,6.23704689 20.7552402,6.19337644 L20.9945411,5.94829689 L21.0022305,5.94042189 C21.2023858,5.73471735 21.4771042,5.62327416 21.7606771,5.63258098 C22.047512,5.63974007 22.3187353,5.76836507 22.5095703,5.98814916 L22.5095703,5.98814916 Z M22.2611819,9.06441053 L23.0885994,8.21677416 C23.8743081,7.44454689 23.9323275,6.17762644 23.2211819,5.33309235 C22.9522887,5.02334235 22.5969489,4.80522871 22.2033955,4.70834235 L22.3709295,4.5367628 C23.1587353,3.76525144 23.2172208,2.49618325 22.503279,1.65212644 C22.1376868,1.23117189 21.6178421,0.984660528 21.0677062,0.970819619 C20.5175703,0.959842346 19.9858421,1.17556962 19.5918227,1.56931962 L19.4995508,1.66381962 C19.1456091,1.31922871 18.6802887,1.12068325 18.1921334,1.10612644 C17.6433955,1.09562644 17.1137644,1.31206962 16.7225411,1.70653553 L15.7697644,2.68231962 C15.5537644,1.75999007 14.7491819,1.10899007 13.8232013,1.10708098 L13.8201722,1.10708098 C13.2905411,1.10636507 12.782347,1.32280825 12.4090654,1.70749007 L8.77201687,5.43212644 C8.70397803,4.82885371 8.42809454,4.27020598 7.99376444,3.85664916 C7.40285182,3.30993325 6.49644405,3.33570598 5.9360557,3.91535371 L2.49054114,7.44406962 C-0.659051094,10.5749787 -0.845225851,15.6899105 2.06809454,19.0522969 C4.02957027,21.2873651 7.0256091,22.2485923 9.8816091,21.5596492 C10.2448712,21.6100014 10.6106965,21.6360128 10.9772208,21.6369673 C13.1169489,21.6381605 15.1683664,20.763081 16.6747741,19.206456 L23.1494149,12.5804787 C23.9327936,11.8051492 23.990347,10.538706 23.2805994,9.6922628 C23.0117062,9.38084235 22.6556674,9.16177416 22.2611819,9.06441053 L22.2611819,9.06441053 Z" id="Fill-1"></path>
            </g>
            <path d="M28.853846,2.92510295 C28.6588893,2.73014487 28.3428747,2.73014487 28.147918,2.92510295 L25.1523428,5.92045628 C24.954226,6.11201109 24.9486349,6.42827101 25.1401884,6.62638925 C25.3317418,6.82475058 25.6479995,6.83034165 25.8461163,6.63878683 C25.8502488,6.6346543 25.8543813,6.63076487 25.8585138,6.62638925 L28.853846,3.63103592 C29.0488026,3.43607784 29.0488026,3.12006102 28.853846,2.92510295" id="Fill-4"></path>
            <path d="M28.2763876,5.83167997 L26.2768008,6.8312094 C26.0297429,6.95484246 25.9294593,7.2551637 26.0528666,7.50218643 C26.1762738,7.74920917 26.4766378,7.8494785 26.7236957,7.72608882 L28.7232824,6.72655938 C28.9705837,6.6031697 29.0706239,6.30284846 28.9472167,6.05558235 C28.8240528,5.80855961 28.5234455,5.70829028 28.2763876,5.83167997" id="Fill-6"></path>
            <path d="M23.2914917,5.69698819 C23.5759868,5.85983936 23.9453622,5.77227897 24.1162934,5.50123215 L25.9195592,2.63767267 C26.0855147,2.36355845 25.9865853,2.01359573 25.6991633,1.85548509 C25.4190585,1.70155726 25.0608054,1.78660796 24.8892888,2.04789487 L23.086023,4.91145434 C22.9150918,5.18222231 23.0069966,5.53413701 23.2914917,5.69698819" id="Fill-8"></path>
            <g id="Group-12" transform="translate(9.000000, 0.000000)">
                <path d="M1.74870892,4.30325939 C1.8744362,4.56225939 2.20579983,4.67850939 2.48834529,4.56325939 C2.76516347,4.45000939 2.89361801,4.15550939 2.77825438,3.89850939 L1.09770892,0.304509391 C0.971981651,0.0455093913 0.640890742,-0.0707406087 0.35807256,0.0445093913 C0.081254378,0.157759391 -0.0472001674,0.452259391 0.0681634689,0.709259391 L1.74870892,4.30325939 Z" id="Fill-10"></path>
            </g>
            <path d="M13.5000635,4.77888439 C13.7761102,4.77888439 14.0000635,4.55514732 14.0000635,4.27882353 L14.0000635,1.27894526 C14.0000635,1.00262146 13.7761102,0.778884391 13.5000635,0.778884391 C13.2240167,0.778884391 13.0000635,1.00262146 13.0000635,1.27894526 L13.0000635,4.27882353 C13.0000635,4.55514732 13.2240167,4.77888439 13.5000635,4.77888439" id="Fill-13"></path>
            <path d="M9.1095197,5.56447138 C9.28210902,5.8109667 9.59661593,5.85075093 9.81253516,5.65349904 C10.0279675,5.45624714 10.0630209,5.09651977 9.8904316,4.85030266 L7.89068369,1.99334956 C7.71809437,1.74685423 7.40334403,1.70707 7.18766823,1.90404369 C6.97199244,2.10129559 6.93718246,2.46102296 7.10977178,2.70751828 L9.1095197,5.56447138 Z" id="Fill-15"></path>
        </g>
    </g>
</svg>