<?xml version="1.0" encoding="utf-8"?>
<!-- Generator: Adobe Illustrator 23.0.3, SVG Export Plug-In . SVG Version: 6.00 Build 0)  -->
<svg version="1.1" id="Layer_1" xmlns="http://www.w3.org/2000/svg" xmlns:xlink="http://www.w3.org/1999/xlink" x="0px" y="0px"
	 viewBox="0 0 45 45" style="enable-background:new 0 0 45 45;" xml:space="preserve">
<style type="text/css">
	.st0{fill:none;stroke:#FFFFFF;stroke-width:2;stroke-linecap:round;stroke-linejoin:round;}
</style>
<title>ICON - LIKE</title>
<desc>Created with Sketch.</desc>
<g id="ICON---LIKE">
	<g id="Group-5" transform="translate(13.000000, 10.000000)">
		<path id="Stroke-1" class="st0" d="M1.1,0.8C0.5,0.8,0,1.3,0,1.8v8c0,0.6,0.4,1.1,0.9,1.2c1.5,0.5,4.5,1.6,5.7,3.3
			c1.7,2.3,2.4,4.3,2.7,6c0.3,1.6,1,2.4,2.1,2.4s2.2-0.7,2-2.1c-0.1-1.3-0.6-3.7-1.3-5.6c-0.1-0.3,0.1-0.7,0.5-0.7h4.9
			c1.5,0,2.7-1.3,2.4-2.7l-1.5-9c-0.2-1.1-1.2-2-2.4-2H1.1z"/>
		<path id="Stroke-3" class="st0" d="M5,0.8v12"/>
	</g>
</g>
</svg>
