<?xml version="1.0" encoding="utf-8"?>
<!-- Generator: Adobe Illustrator 23.0.3, SVG Export Plug-In . SVG Version: 6.00 Build 0)  -->
<svg version="1.1" id="Layer_1" xmlns="http://www.w3.org/2000/svg" xmlns:xlink="http://www.w3.org/1999/xlink" x="0px" y="0px"
	 viewBox="0 0 65 22" style="enable-background:new 0 0 65 22;" xml:space="preserve">
<style type="text/css">
	.st0{fill-rule:evenodd;clip-rule:evenodd;fill:#0E1E64;}
	.st1{fill:#FFFFFF;}
	.st2{font-family:'Gilroy-Medium';}
	.st3{font-size:11px;}
	.st4{fill-rule:evenodd;clip-rule:evenodd;fill:#FFFFFF;}
</style>
<title>LIKE ATIVADO</title>
<desc>Created with Sketch.</desc>
<g id="LIKE-ATIVADO">
	<path id="Rectangle" class="st0" d="M11,0h33c6.1,0,11,4.9,11,11l0,0c0,6.1-4.9,11-11,11H11C4.9,22,0,17.1,0,11l0,0
		C0,4.9,4.9,0,11,0z"/>
	<text transform="matrix(1 0 0 1 30.3381 15.1423)" class="st1 st2 st3">164</text>
	<g id="Group-7" transform="translate(8.000000, 4.000000)">
		<path id="Fill-1" class="st4" d="M12,12c0.6,0,1.1-0.5,1.2-1.1L14,6c0.1-0.8-0.5-1.5-1.2-1.5h-2.5c-0.2,0-0.3-0.2-0.3-0.4
			c0.3-1,0.6-2.4,0.6-3c0.1-0.8-0.5-1.1-1-1.1c-0.5,0-0.9,0.4-1,1.3c-0.2,0.9-0.5,2-1.4,3.2C6.7,5.5,5.2,6.1,4.4,6.4
			C4.2,6.5,4,6.7,4,7v4.4C4,11.7,4.2,12,4.5,12H12z"/>
		<path id="Fill-4" class="st4" d="M2,12H0.8C0.4,12,0,11.7,0,11.4V6.6C0,6.3,0.4,6,0.8,6H2c0.5,0,0.8,0.3,0.8,0.6v4.8
			C2.9,11.7,2.5,12,2,12h10.1"/>
	</g>
</g>
</svg>
