<svg xmlns="http://www.w3.org/2000/svg" width="191" height="24" viewBox="0 0 191 24">
    <g fill="none" fill-rule="nonzero">
        <path fill="#CB2D29" d="M.035 4.162v1.366c0 .554.293 1.065.776 1.338l8.931 5.143c.42.245.42.855 0 1.093l-4.87 2.817a.629.629 0 0 1-.944-.547v-4.21c0-.435-.238-.834-.615-1.045l-2.16-1.19C.538 8.582.028 8.883.028 9.591V20.13c0 1.43 1.544 2.326 2.781 1.611l11.916-6.894c1.761-1.016 1.761-3.566 0-4.59L2.125 2.95a1.394 1.394 0 0 0-2.09 1.212z"/>
        <g fill="#474747">
            <path d="M23.077 5.164l3.97-.028 3.172 9.816 3.145-9.816h3.823L32.12 18.602H28.17zM50.004 5.864c1.09.568 1.936 1.367 2.537 2.404.6 1.037.901 2.235.901 3.601 0 1.352-.3 2.55-.901 3.594s-1.447 1.85-2.537 2.432c-1.09.574-2.341.862-3.76.862-1.433 0-2.69-.288-3.78-.862a6.202 6.202 0 0 1-2.538-2.432c-.6-1.043-.901-2.242-.901-3.594 0-1.366.3-2.571.901-3.601a6.182 6.182 0 0 1 2.537-2.404c1.09-.567 2.348-.847 3.78-.847 1.42 0 2.67.287 3.76.847zM43.812 9.25c-.622.686-.937 1.576-.937 2.676s.315 1.997.937 2.677c.622.686 1.433 1.023 2.432 1.023.985 0 1.782-.344 2.411-1.023.622-.687.937-1.577.937-2.677s-.315-1.997-.937-2.676c-.622-.687-1.426-1.023-2.411-1.023-.992-.007-1.803.336-2.432 1.023zM55.637 5.143h4.396l2.474 4.078 2.62-4.078h4.193L65.05 11.7l4.571 6.908h-4.417l-2.697-4.407-2.95 4.407h-4.242l4.648-6.887zM83.466 6.894c1.125 1.255 1.684 3 1.684 5.234 0 .4-.007.708-.021.925H75.49c.217.848.63 1.514 1.251 1.99.615.477 1.356.715 2.223.715.629 0 1.237-.12 1.824-.365a4.777 4.777 0 0 0 1.572-1.065l2.02 2.053a6.73 6.73 0 0 1-2.488 1.766c-.971.406-2.062.617-3.257.617-1.418 0-2.648-.288-3.704-.848a5.952 5.952 0 0 1-2.446-2.403c-.573-1.037-.86-2.229-.86-3.58 0-1.367.294-2.572.874-3.616a6.148 6.148 0 0 1 2.446-2.431c1.049-.575 2.25-.862 3.6-.862 2.152-.007 3.794.616 4.92 1.87zm-1.936 3.882c-.035-.883-.315-1.59-.846-2.13-.531-.532-1.237-.799-2.125-.799-.831 0-1.53.26-2.082.792-.56.526-.909 1.24-1.062 2.137h6.115zM89.546.035h3.843v18.574h-3.843zM119.31.035v18.574h-2.32v-2.627a5.222 5.222 0 0 1-2.013 2.039c-.838.476-1.817.715-2.935.715-1.25 0-2.355-.288-3.305-.862a5.932 5.932 0 0 1-2.237-2.404c-.531-1.022-.797-2.2-.797-3.517 0-1.303.266-2.46.797-3.468a5.884 5.884 0 0 1 2.237-2.368c.957-.568 2.047-.848 3.284-.848 1.132 0 2.125.231 2.97.7a5.017 5.017 0 0 1 2 2.025V.035h2.32zm-4.48 16.094c.672-.4 1.203-.96 1.587-1.674.384-.715.573-1.528.573-2.432 0-.918-.189-1.737-.573-2.452a4.206 4.206 0 0 0-1.586-1.675c-.678-.399-1.447-.602-2.314-.602-.866 0-1.635.203-2.306.616a4.29 4.29 0 0 0-1.586 1.689c-.385.715-.573 1.527-.573 2.431 0 .904.188 1.71.573 2.432a4.206 4.206 0 0 0 1.586 1.674c.671.4 1.447.603 2.306.603.867-.007 1.636-.204 2.314-.61zM127.913.511c.273.288.413.645.413 1.08 0 .434-.14.791-.413 1.079-.272.287-.622.427-1.034.427-.42 0-.762-.14-1.034-.427-.273-.28-.413-.645-.413-1.08 0-.434.14-.791.413-1.079.272-.28.622-.427 1.034-.427.412 0 .755.14 1.034.427zm-2.187 4.856h2.32v13.242h-2.32V5.367zM146 5.367v11.89c0 1.268-.28 2.382-.839 3.328a5.495 5.495 0 0 1-2.362 2.186c-1.013.512-2.194.764-3.543.764-1.95 0-3.76-.617-5.444-1.85l1.027-1.702c.65.532 1.321.932 2.02 1.19.699.26 1.467.386 2.3.386 1.362 0 2.452-.385 3.27-1.149.818-.77 1.223-1.794 1.223-3.076v-1.85a4.913 4.913 0 0 1-1.901 1.864c-.804.442-1.712.666-2.747.666-1.18 0-2.229-.273-3.13-.813-.91-.54-1.608-1.296-2.111-2.263-.496-.967-.748-2.081-.748-3.328 0-1.233.252-2.326.748-3.28a5.446 5.446 0 0 1 2.11-2.227c.909-.533 1.95-.799 3.131-.799 1.049 0 1.971.217 2.76.652a4.887 4.887 0 0 1 1.888 1.85V5.373H146v-.007zm-4.368 10.188a4.078 4.078 0 0 0 1.489-1.59c.356-.674.538-1.437.538-2.292 0-.869-.182-1.64-.538-2.32a4.026 4.026 0 0 0-1.489-1.59c-.636-.385-1.356-.574-2.173-.574-.818 0-1.545.189-2.188.574a4.03 4.03 0 0 0-1.51 1.59c-.363.673-.551 1.451-.551 2.32.014 1.303.419 2.368 1.195 3.202.782.834 1.796 1.254 3.047 1.254.824 0 1.544-.19 2.18-.574zM154.177.511c.272.288.412.645.412 1.08 0 .434-.14.791-.412 1.079-.273.287-.622.427-1.035.427-.419 0-.761-.14-1.034-.427-.272-.28-.412-.645-.412-1.08 0-.434.14-.791.412-1.079.273-.28.622-.427 1.034-.427.42 0 .762.14 1.035.427zm-2.18 4.856h2.32v13.242h-2.32V5.367zM167.679 17.734c-1.014.651-2.048.974-3.096.974s-1.901-.316-2.544-.94c-.65-.623-.971-1.576-.971-2.844V7.595h-1.873v-1.78h1.873V2.263h2.348v3.552h4.046v1.78h-4.046v6.909c0 .735.133 1.26.398 1.576.266.315.664.477 1.195.477.63 0 1.314-.21 2.048-.624l.622 1.8zM180.307 18.61v-1.85c-.985 1.303-2.523 1.955-4.62 1.955-.915 0-1.718-.176-2.41-.526-.692-.35-1.223-.834-1.6-1.45-.378-.617-.56-1.31-.56-2.081 0-1.184.44-2.123 1.314-2.817.874-.694 2.097-1.044 3.662-1.065h4.193v-.623c0-.932-.286-1.654-.86-2.166-.572-.511-1.41-.763-2.508-.763-1.335 0-2.69.476-4.068 1.43l-.971-1.605c.95-.617 1.824-1.065 2.635-1.339.81-.273 1.768-.413 2.886-.413 1.65 0 2.921.406 3.823 1.212.901.813 1.356 1.94 1.37 3.391l.028 8.71h-2.314zm-1.383-2.614c.754-.526 1.209-1.22 1.362-2.088v-1.324h-3.871c-1.049 0-1.824.16-2.335.476-.51.316-.761.82-.761 1.5 0 .686.258 1.226.775 1.625.518.4 1.21.603 2.076.603 1.076-.007 1.999-.267 2.754-.792zM188.624.035h2.32v18.574h-2.32z"/>
        </g>
    </g>
</svg>
