<svg xmlns="http://www.w3.org/2000/svg" width="124" height="15" viewBox="0 0 124 15">
    <g fill="#454545" fill-rule="nonzero">
        <path d="M.563 2.601v.854c0 .346.19.666.5.837l5.752 3.214a.39.39 0 0 1 0 .683l-3.137 1.76c-.27.154-.608-.04-.608-.341V6.976a.745.745 0 0 0-.396-.653l-1.39-.744c-.397-.215-.725-.026-.725.416v6.586c0 .893.994 1.454 1.791 1.007l7.673-4.309a1.634 1.634 0 0 0 0-2.868L1.91 1.844C1.31 1.51.563 1.927.563 2.6zM15.402 3.227l2.556-.017L20 9.345l2.025-6.135h2.462l-3.263 8.417h-2.543zM32.742 3.665a3.905 3.905 0 0 1 1.634 1.502c.387.648.58 1.397.58 2.251 0 .845-.193 1.594-.58 2.247a3.973 3.973 0 0 1-1.634 1.52c-.702.358-1.507.538-2.421.538-.923 0-1.733-.18-2.435-.539a3.944 3.944 0 0 1-1.634-1.52c-.387-.652-.58-1.4-.58-2.246 0-.854.193-1.607.58-2.25a3.933 3.933 0 0 1 1.634-1.503c.702-.354 1.512-.53 2.435-.53.914 0 1.72.18 2.421.53zM28.755 5.78c-.4.43-.603.986-.603 1.673 0 .688.202 1.248.603 1.673.4.43.922.64 1.566.64.634 0 1.148-.215 1.553-.64.4-.43.603-.985.603-1.673 0-.687-.203-1.248-.603-1.673-.401-.429-.919-.639-1.553-.639-.64-.004-1.161.21-1.566.64zM36.37 3.214h2.83l1.594 2.549 1.687-2.549h2.7l-2.75 4.1 2.944 4.317h-2.844l-1.737-2.755-1.9 2.755h-2.731l2.992-4.305zM54.29 4.309c.725.784 1.085 1.874 1.085 3.271 0 .25-.004.443-.013.578h-6.206c.14.53.405.946.805 1.244.396.298.873.447 1.431.447a3.096 3.096 0 0 0 2.188-.894l1.3 1.283c-.44.482-.972.85-1.602 1.104a5.54 5.54 0 0 1-2.097.385c-.914 0-1.706-.18-2.385-.53a3.781 3.781 0 0 1-1.576-1.502c-.369-.648-.553-1.392-.553-2.237 0-.854.189-1.608.562-2.26.374-.652.9-1.156 1.576-1.52.675-.359 1.449-.538 2.317-.538 1.387-.005 2.444.385 3.169 1.169zm-1.246 2.426c-.022-.552-.202-.994-.544-1.331-.342-.333-.797-.5-1.369-.5-.535 0-.985.163-1.34.495-.36.329-.586.776-.685 1.336h3.938zM58.206.022h2.476V11.63h-2.476zM77.374.022V11.63H75.88V9.989c-.32.551-.752.976-1.296 1.274-.54.298-1.17.447-1.89.447-.806 0-1.517-.18-2.13-.539a3.754 3.754 0 0 1-1.44-1.502c-.341-.64-.512-1.375-.512-2.198 0-.815.17-1.537.513-2.168a3.726 3.726 0 0 1 1.44-1.48c.616-.355 1.318-.53 2.115-.53.73 0 1.368.145 1.913.438.544.293.976.714 1.287 1.266V.022h1.494zM74.49 10.08c.432-.25.774-.6 1.022-1.047.247-.447.369-.955.369-1.52 0-.573-.122-1.085-.37-1.532a2.664 2.664 0 0 0-1.02-1.047A2.945 2.945 0 0 0 73 4.56c-.558 0-1.054.127-1.486.385a2.716 2.716 0 0 0-1.021 1.055c-.248.447-.37.955-.37 1.52 0 .565.122 1.068.37 1.52.247.446.585.796 1.021 1.046.432.25.932.377 1.486.377.558-.005 1.053-.127 1.49-.381zM82.914.32c.176.18.266.403.266.674 0 .272-.09.495-.266.674a.895.895 0 0 1-.666.268.888.888 0 0 1-.666-.268.918.918 0 0 1-.265-.674c0-.271.09-.495.265-.674a.912.912 0 0 1 .666-.267c.266 0 .486.087.666.267zm-1.408 3.034H83v8.277h-1.494V3.354zM94.562 3.354v7.432c0 .792-.18 1.489-.54 2.08a3.5 3.5 0 0 1-1.522 1.366c-.652.32-1.413.477-2.281.477-1.256 0-2.422-.385-3.506-1.156l.661-1.064c.419.333.851.583 1.301.745.45.162.945.24 1.48.24.878 0 1.58-.24 2.107-.718.527-.481.788-1.12.788-1.922V9.678c-.302.499-.707.889-1.225 1.165-.517.276-1.102.416-1.768.416-.76 0-1.436-.171-2.017-.508a3.506 3.506 0 0 1-1.359-1.415c-.32-.604-.481-1.3-.481-2.08 0-.77.162-1.454.481-2.05.32-.595.774-1.059 1.36-1.392.585-.333 1.255-.499 2.016-.499.675 0 1.269.136 1.777.407.509.272.914.657 1.216 1.156v-1.52h1.512v-.004zm-2.813 6.368c.405-.241.724-.57.959-.994.229-.42.346-.898.346-1.432 0-.543-.117-1.025-.346-1.45-.23-.42-.55-.753-.96-.994-.409-.24-.872-.359-1.399-.359-.526 0-.994.118-1.408.359-.415.24-.739.57-.973.994a2.94 2.94 0 0 0-.355 1.45c.009.814.27 1.48.77 2 .504.522 1.156.785 1.962.785.53 0 .994-.119 1.404-.36zM99.827.32c.176.18.266.403.266.674 0 .272-.09.495-.266.674a.895.895 0 0 1-.666.268.888.888 0 0 1-.666-.268.918.918 0 0 1-.265-.674c0-.271.09-.495.265-.674a.912.912 0 0 1 .666-.267c.27 0 .49.087.666.267zm-1.404 3.034h1.494v8.277h-1.494V3.354zM108.522 11.084c-.652.407-1.318.608-1.993.608s-1.224-.197-1.639-.587c-.418-.39-.625-.985-.625-1.778v-4.58h-1.206V3.635h1.206v-2.22h1.512v2.22h2.606v1.112h-2.606v4.318c0 .46.086.788.257.985.17.197.427.298.77.298.404 0 .845-.132 1.318-.39l.4 1.126zM116.655 11.63v-1.155c-.635.814-1.625 1.222-2.975 1.222-.59 0-1.107-.11-1.553-.329a2.475 2.475 0 0 1-1.03-.906 2.384 2.384 0 0 1-.36-1.3c0-.741.283-1.328.846-1.761.562-.434 1.35-.653 2.358-.666h2.7v-.39c0-.582-.184-1.033-.553-1.353-.37-.32-.91-.477-1.616-.477-.86 0-1.733.298-2.62.893l-.625-1.003c.612-.385 1.175-.665 1.697-.836.522-.17 1.139-.258 1.859-.258 1.062 0 1.88.254 2.461.757.581.508.874 1.213.883 2.12l.018 5.443h-1.49zm-.891-1.633c.486-.328.778-.761.877-1.304v-.828h-2.493c-.675 0-1.175.1-1.503.298-.329.197-.49.512-.49.937 0 .429.166.766.499 1.016.333.25.779.376 1.337.376.693-.004 1.287-.166 1.773-.495zM122.01.022h1.495V11.63h-1.494z"/>
    </g>
</svg>
