<?xml version="1.0" encoding="UTF-8"?>
<svg width="56px" height="56px" viewBox="0 0 56 56" version="1.1" xmlns="http://www.w3.org/2000/svg" xmlns:xlink="http://www.w3.org/1999/xlink">
    <!-- Generator: Sketch 54.1 (76490) - https://sketchapp.com -->
    <title>ICON - aplauso Copy 2</title>
    <desc>Created with Sketch.</desc>
    <g id="Page-1" stroke="none" stroke-width="1" fill="none" fill-rule="evenodd">
        <g id="8.0-Chat---Reaction" transform="translate(-516.000000, -874.000000)">
            <g id="ICON---LIKE" transform="translate(516.000000, 874.000000)">
                <ellipse id="Oval" fill="#17195C" cx="27.7875" cy="28" rx="27.7875" ry="28"></ellipse>
                <g id="Group-5" stroke-width="1" transform="translate(14.250000, 10.051282)" stroke="#FFFFFF" stroke-linecap="round" stroke-linejoin="round">
                    <path d="M22.8249012,31.5897436 C24.5512235,31.5897436 26.0220751,30.3994217 26.2917202,28.7829474 L28.4558038,15.8240852 C28.794014,13.804235 27.1481238,11.9781505 24.9903033,11.9781505 L17.9963412,11.9781505 C17.4580398,11.9781505 17.0904917,11.478387 17.2645414,10.9954582 C18.2224739,8.33489405 18.9104316,4.80585039 19.115797,2.99429006 C19.3462151,0.949682779 17.8048206,0 16.2634261,0 C14.7220316,0 13.7967334,1.16886574 13.3349084,3.50626711 C12.8717648,5.84234811 11.8706495,8.7646775 9.48142215,12.0514316 C7.74092537,14.4439588 3.50802401,16.0620835 1.33504015,16.7658457 C0.535993895,17.0243099 0,17.734674 0,18.5361442 L0,30.0722977 C0,30.9104085 0.678398177,31.5897436 1.51535297,31.5897436 L22.8249012,31.5897436 Z" id="Stroke-1" stroke-width="2"></path>
                    <path d="M7.125,14.3589744 L7.125,31.5897436" id="Stroke-3" stroke-width="2"></path>
                </g>
            </g>
        </g>
    </g>
</svg>