<?xml version="1.0" encoding="UTF-8"?>
<svg width="111px" height="86px" viewBox="0 0 111 86" version="1.1" xmlns="http://www.w3.org/2000/svg" xmlns:xlink="http://www.w3.org/1999/xlink">
    <!-- Generator: Sketch 54.1 (76490) - https://sketchapp.com -->
    <title>ICONE - CAMERA</title>
    <desc>Created with Sketch.</desc>
    <g id="Page-1" stroke="none" stroke-width="1" fill="none" fill-rule="evenodd">
        <g id="7.-COLABORADOR---ADICIONAR" transform="translate(-247.000000, -318.000000)" stroke="#343433" stroke-width="4">
            <g id="LAYOUT" transform="translate(-1.000000, 0.000000)">
                <g id="ICONE---CAMERA" transform="translate(241.000000, 284.000000)">
                    <path d="M21.0007935,48.9960937 L43.1376953,48.9960937 L46.6904297,36 L79.2563477,36 L83.0722656,48.9960937 L91.3017578,48.9960937 L99.7890625,48.9960937 L104,48.9960937 C110.627417,48.9960937 116,54.3686768 116,60.9960937 L116,105.99637 C116,112.623787 110.627417,117.99637 104,117.99637 L21,117.996508 C14.372583,117.996508 9,112.623925 9,105.996508 C9,105.996462 9,105.996416 9,105.99637 L9.00079346,60.9960938 C9.00086967,54.3687306 14.3734303,48.9962317 21.0007935,48.9962317 Z" id="Rectangle" stroke-linejoin="round"></path>
                    <circle id="Oval" cx="63" cy="82" r="25"></circle>
                </g>
            </g>
        </g>
    </g>
</svg>