<?xml version="1.0" encoding="UTF-8"?>
<svg width="150px" height="151px" viewBox="0 0 150 151" version="1.1" xmlns="http://www.w3.org/2000/svg" xmlns:xlink="http://www.w3.org/1999/xlink">
    <!-- Generator: Sketch 54.1 (76490) - https://sketchapp.com -->
    <title>ICONE - CLAQUETE BRANCO</title>
    <desc>Created with Sketch.</desc>
    <g id="Page-1" stroke="none" stroke-width="1" fill="none" fill-rule="evenodd" stroke-linecap="round" stroke-linejoin="round">
        <g id="2.1.2-AVISO---SEM-TRANSMISSÃO-v2" transform="translate(-227.000000, -396.000000)" stroke="#FFFFFF">
            <g id="LAYOUT" transform="translate(-550.000000, 0.000000)">
                <g id="ICONE---ATENÇÃO-Copy" transform="translate(766.000000, 368.000000)">
                    <g id="Group-7" transform="translate(13.360000, 30.766234)">
                        <path d="M27.3449305,129.841103 C29.6402497,131.673917 32.0709991,133.387047 34.6333638,134.967762 C68.8685903,156.07918 113.714423,145.406334 134.800204,111.128449 C155.88535,76.8512004 145.22515,31.9488518 110.990559,10.8374332 C76.7559684,-10.2739853 31.9095002,0.398861086 10.8243546,34.676746 C-5.72928415,61.5864518 -2.71739298,95.0443769 15.9064838,118.398589" id="Stroke-1-Copy" stroke-width="4"></path>
                        <path d="M86.6187649,54.8441558 L82.6163247,86.5349853 C82.0076891,91.3535362 77.8016034,94.974026 72.8122876,94.974026 C67.8223966,94.974026 63.6163109,91.3535362 63.007963,86.5349853 L56.2390499,32.9418299 C55.0157385,23.2563132 62.7824572,14.7142857 72.812,14.7142857 C82.8415428,14.7142857 90.6082615,23.2563132 89.3849501,32.9415501" id="Stroke-1" stroke-width="4"></path>
                        <path d="M85.504,120.38961 C85.504,127.03859 80.1207172,132.428571 73.48,132.428571 C66.8392828,132.428571 61.456,127.03859 61.456,120.38961 C61.456,113.740315 66.8392828,108.350649 73.48,108.350649 C80.1207172,108.350649 85.504,113.740315 85.504,120.38961 Z" id="Stroke-3" stroke-width="4"></path>
                    </g>
                </g>
            </g>
        </g>
    </g>
</svg>