<svg xmlns="http://www.w3.org/2000/svg" width="123" height="15" viewBox="0 0 123 15">
    <g fill="none" fill-rule="nonzero">
        <path fill="#CB2D29" d="M.023 2.601v.854c0 .346.189.666.5.837l5.75 3.214a.39.39 0 0 1 0 .683l-3.136 1.76c-.27.154-.608-.04-.608-.341V6.976a.745.745 0 0 0-.396-.653L.743 5.58c-.396-.215-.725-.026-.725.416v6.586c0 .893.995 1.454 1.791 1.007L9.483 9.28a1.634 1.634 0 0 0 0-2.868L1.368 1.844C.77 1.51.023 1.927.023 2.6z"/>
        <g fill="#474747">
            <path d="M14.86 3.227l2.557-.017 2.043 6.135 2.026-6.135h2.461l-3.262 8.417h-2.543zM32.201 3.665a3.905 3.905 0 0 1 1.634 1.502c.387.648.58 1.397.58 2.251 0 .845-.193 1.594-.58 2.247a3.973 3.973 0 0 1-1.634 1.52c-.702.358-1.507.538-2.42.538-.923 0-1.734-.18-2.436-.539a3.944 3.944 0 0 1-1.633-1.52c-.387-.652-.58-1.4-.58-2.246 0-.854.193-1.607.58-2.25a3.933 3.933 0 0 1 1.633-1.503c.702-.354 1.513-.53 2.435-.53.914 0 1.72.18 2.421.53zM28.214 5.78c-.4.43-.603.986-.603 1.673 0 .688.202 1.248.603 1.673.4.43.923.64 1.566.64.635 0 1.148-.215 1.553-.64.4-.43.603-.985.603-1.673 0-.687-.203-1.248-.603-1.673-.4-.429-.918-.639-1.553-.639-.639-.004-1.161.21-1.566.64zM35.829 3.214h2.83l1.594 2.549 1.688-2.549h2.7l-2.75 4.1 2.943 4.317H41.99l-1.737-2.755-1.9 2.755h-2.731l2.993-4.305zM53.75 4.309c.725.784 1.085 1.874 1.085 3.271 0 .25-.005.443-.014.578h-6.206c.14.53.405.946.806 1.244.396.298.873.447 1.43.447a3.096 3.096 0 0 0 2.188-.894l1.3 1.283c-.44.482-.971.85-1.602 1.104a5.54 5.54 0 0 1-2.097.385c-.913 0-1.706-.18-2.385-.53a3.781 3.781 0 0 1-1.575-1.502c-.37-.648-.554-1.392-.554-2.237 0-.854.19-1.608.563-2.26.373-.652.9-1.156 1.575-1.52.675-.359 1.45-.538 2.318-.538 1.386-.005 2.443.385 3.168 1.169zm-1.247 2.426c-.022-.552-.202-.994-.544-1.331-.342-.333-.797-.5-1.368-.5-.536 0-.986.163-1.341.495-.36.329-.586.776-.685 1.336h3.938zM57.666.022h2.475V11.63h-2.475zM76.833.022V11.63H75.34V9.989c-.32.551-.751.976-1.296 1.274-.54.298-1.17.447-1.89.447-.806 0-1.517-.18-2.129-.539a3.754 3.754 0 0 1-1.44-1.502c-.342-.64-.513-1.375-.513-2.198 0-.815.17-1.537.513-2.168a3.726 3.726 0 0 1 1.44-1.48c.617-.355 1.319-.53 2.115-.53.73 0 1.368.145 1.913.438.545.293.977.714 1.287 1.266V.022h1.494zM73.95 10.08c.432-.25.774-.6 1.021-1.047.248-.447.37-.955.37-1.52 0-.573-.122-1.085-.37-1.532a2.664 2.664 0 0 0-1.021-1.047 2.945 2.945 0 0 0-1.49-.376c-.558 0-1.053.127-1.485.385a2.716 2.716 0 0 0-1.022 1.055c-.247.447-.369.955-.369 1.52 0 .565.122 1.068.369 1.52.248.446.585.796 1.022 1.046.432.25.931.377 1.485.377.558-.005 1.053-.127 1.49-.381zM82.374.32c.175.18.265.403.265.674 0 .272-.09.495-.265.674a.895.895 0 0 1-.667.268.888.888 0 0 1-.666-.268.918.918 0 0 1-.265-.674c0-.271.09-.495.265-.674a.912.912 0 0 1 .666-.267c.266 0 .487.087.667.267zm-1.41 3.034h1.495v8.277h-1.494V3.354zM94.021 3.354v7.432c0 .792-.18 1.489-.54 2.08a3.5 3.5 0 0 1-1.521 1.366c-.653.32-1.413.477-2.282.477-1.256 0-2.421-.385-3.506-1.156l.662-1.064c.418.333.85.583 1.3.745.45.162.945.24 1.48.24.879 0 1.58-.24 2.107-.718.527-.481.788-1.12.788-1.922V9.678c-.302.499-.707.889-1.224 1.165-.518.276-1.103.416-1.77.416-.76 0-1.435-.171-2.015-.508a3.506 3.506 0 0 1-1.36-1.415c-.319-.604-.481-1.3-.481-2.08 0-.77.162-1.454.482-2.05.319-.595.774-1.059 1.359-1.392.585-.333 1.255-.499 2.016-.499.675 0 1.27.136 1.778.407.508.272.913.657 1.215 1.156v-1.52h1.512v-.004zm-2.813 6.368c.405-.241.725-.57.959-.994.23-.42.346-.898.346-1.432 0-.543-.117-1.025-.346-1.45-.23-.42-.55-.753-.959-.994-.41-.24-.873-.359-1.4-.359-.526 0-.994.118-1.408.359-.414.24-.738.57-.972.994a2.94 2.94 0 0 0-.356 1.45c.01.814.27 1.48.77 2 .504.522 1.156.785 1.962.785.531 0 .995-.119 1.404-.36zM99.287.32c.175.18.265.403.265.674 0 .272-.09.495-.265.674a.895.895 0 0 1-.666.268.888.888 0 0 1-.667-.268.918.918 0 0 1-.265-.674c0-.271.09-.495.265-.674a.912.912 0 0 1 .667-.267c.27 0 .49.087.666.267zm-1.405 3.034h1.495v8.277h-1.495V3.354zM107.982 11.084c-.653.407-1.319.608-1.994.608s-1.224-.197-1.638-.587c-.419-.39-.626-.985-.626-1.778v-4.58h-1.206V3.635h1.206v-2.22h1.512v2.22h2.606v1.112h-2.606v4.318c0 .46.086.788.257.985.17.197.427.298.77.298.405 0 .846-.132 1.318-.39l.4 1.126zM116.114 11.63v-1.155c-.634.814-1.625 1.222-2.975 1.222-.59 0-1.107-.11-1.552-.329a2.475 2.475 0 0 1-1.031-.906 2.384 2.384 0 0 1-.36-1.3c0-.741.283-1.328.846-1.761.563-.434 1.35-.653 2.358-.666h2.7v-.39c0-.582-.184-1.033-.553-1.353-.369-.32-.909-.477-1.616-.477-.86 0-1.732.298-2.619.893l-.626-1.003c.613-.385 1.175-.665 1.697-.836.522-.17 1.139-.258 1.859-.258 1.062 0 1.881.254 2.462.757.58.508.873 1.213.882 2.12l.018 5.443h-1.49zm-.89-1.633c.485-.328.778-.761.877-1.304v-.828h-2.494c-.675 0-1.174.1-1.503.298-.328.197-.49.512-.49.937 0 .429.166.766.5 1.016.332.25.778.376 1.336.376.693-.004 1.287-.166 1.773-.495zM121.47.022h1.494V11.63h-1.494z"/>
        </g>
    </g>
</svg>
